PathFileType	4	(X/Y/Z)	C:\Users\WrightLab\Desktop\Jo\P3_33.trc
DataRate	CameraRate	NumFrames	NumMarkers	Units	OrigDataRate	OrigDataStartFrame	OrigNumFrames
100.00	100.00	       19	19	mm	100.00	324	       646
Frame#	Time	Headset_Front			Headset_Back			Headset_Left			Headset_Right			Left_Shoulder			Right_Shoulder			Sternum			C7			Left Elbow			Right Elbow			Left Wrist			Right Wrist			Left ASIS			Right ASIS			S2			Left Knee			Right Knee			Left Ankle			Right Ankle			
		X1	Y1	Z1	X2	Y2	Z2	X3	Y3	Z3	X4	Y4	Z4	X5	Y5	Z5	X6	Y6	Z6	X7	Y7	Z7	X8	Y8	Z8	X9	Y9	Z9	X10	Y10	Z10	X11	Y11	Z11	X12	Y12	Z12	X13	Y13	Z13	X14	Y14	Z14	X15	Y15	Z15	X16	Y16	Z16	X17	Y17	Z17	X18	Y18	Z18	X19	Y19	Z19	

324	3.230	-576.61871	1402.74316	-438.49255	-596.70593	1604.99365	-214.54149	-696.46143	1523.76587	-315.08542	-479.53873	1467.59216	-341.90247	-773.79608	1326.38135	-149.94714	-421.20477	1319.70813	-207.32831	-627.51654	1194.66235	-296.69547	-589.95782	1377.68726	-135.77769	-901.08545	1013.56195	-143.09796	-336.73456	978.36609	-166.05806	-935.49225	845.13232	-259.45212	-347.23410	784.15009	-281.00772	-718.25970	837.81348	-215.95703	-474.70227	845.23474	-283.66791	-547.26172	927.40784	-46.69117	-690.98499	433.05957	-64.09412	-521.60046	442.80014	-370.00180	-650.74719	121.35315	42.74869	-561.22443	114.40115	-419.32843	
325	3.240	-577.58667	1402.23975	-447.32697	-598.76758	1603.66272	-222.40646	-698.14514	1522.24170	-323.43329	-480.04196	1466.87708	-350.43799	-775.23517	1324.48987	-159.04327	-422.32465	1318.23901	-216.44096	-628.88873	1192.96655	-305.74173	-590.38055	1375.86218	-144.97267	-901.92950	1011.33710	-154.17773	-341.19464	976.61310	-169.57616	-936.99780	844.46851	-271.73953	-349.47296	780.67554	-282.01981	-720.78473	836.24994	-224.92238	-476.86050	841.96912	-290.98889	-549.67194	924.99365	-56.16190	-692.64148	432.39304	-69.03069	-521.56567	440.33716	-376.51035	-650.76587	121.92580	41.68212	-563.19897	114.18255	-437.40366	
326	3.250	-578.74451	1401.82947	-455.70895	-600.05701	1601.51147	-230.20633	-699.27167	1521.02051	-331.57858	-480.84988	1466.03040	-359.06836	-776.74084	1322.72681	-168.34470	-423.45428	1316.55676	-224.35518	-629.83698	1191.48877	-315.21588	-592.55353	1373.84998	-153.09235	-904.51776	1010.72681	-164.49846	-345.40637	975.16730	-173.64955	-937.90088	843.55646	-283.31949	-352.54053	778.67084	-284.44177	-723.36871	834.40057	-234.53212	-478.37042	839.37762	-299.11215	-551.74902	923.52924	-65.71617	-693.90826	431.07251	-73.37758	-521.23462	437.68378	-381.98965	-651.05560	123.07288	39.49295	-564.32983	114.48477	-453.04883	
327	3.260	-580.06226	1401.23181	-464.45322	-601.73810	1599.91602	-238.46863	-700.66827	1519.72888	-340.06580	-482.34030	1464.37170	-367.98535	-777.73407	1321.11963	-178.09601	-424.06439	1315.03943	-233.51761	-631.05267	1190.20984	-324.49387	-594.01337	1372.25610	-162.36299	-905.30096	1008.41174	-175.21832	-349.35437	973.45081	-177.64693	-938.19629	842.66278	-294.76147	-354.88553	774.97327	-286.19965	-725.54492	832.44965	-243.48474	-480.75836	836.73846	-308.77505	-553.44958	921.15747	-74.86723	-694.79639	430.49680	-79.83142	-521.34967	435.31949	-388.43002	-651.37018	123.38422	38.66031	-564.78119	115.19940	-467.31683	
328	3.270	-580.73926	1400.32727	-472.97955	-602.60828	1598.11804	-245.86095	-701.68652	1518.11548	-348.39417	-483.39572	1464.06030	-375.94867	-778.86505	1319.48584	-187.83681	-425.34311	1313.02942	-241.74358	-631.78271	1188.88611	-334.44940	-594.26752	1370.10107	-171.78075	-906.03851	1006.81494	-184.74269	-352.95389	971.69006	-182.53323	-938.97327	841.64301	-306.28738	-356.89313	772.64355	-289.27377	-727.70209	830.44666	-253.23216	-482.96252	834.77863	-318.76712	-555.57574	919.42749	-84.29629	-696.50024	429.80222	-85.33261	-522.25525	433.85355	-396.87027	-651.97150	124.38570	37.71947	-565.07446	113.18047	-478.11667	
329	3.280	-581.82892	1400.43481	-482.17117	-603.04877	1597.07117	-253.49519	-703.06793	1516.78027	-355.95230	-484.67316	1463.14624	-384.55859	-780.01575	1317.39502	-197.23982	-426.29251	1311.15552	-250.24747	-632.48822	1186.79700	-343.88129	-595.48236	1368.04102	-180.67540	-906.80530	1004.49396	-195.62520	-356.15179	970.41711	-188.18816	-938.60046	840.68591	-317.91745	-358.48831	769.66974	-292.39328	-729.79761	828.47253	-263.11639	-484.30853	832.63708	-326.53430	-557.68237	917.59344	-93.47667	-697.75641	429.59576	-91.08718	-521.94348	431.69611	-404.66513	-652.52673	125.74479	35.15091	-564.95166	111.75868	-487.18149	
330	3.290	-582.30933	1399.48914	-490.88654	-603.75690	1595.00684	-260.92233	-703.60822	1515.86755	-364.53226	-485.51187	1462.63464	-393.21603	-781.20020	1315.61230	-207.03094	-427.35794	1309.21729	-258.83578	-633.33783	1185.71497	-354.07523	-596.53937	1366.27344	-189.43391	-907.13843	1002.53735	-204.75919	-359.15549	968.62659	-195.41193	-938.49756	839.10187	-328.94696	-360.28268	766.84253	-295.40704	-731.64789	826.35693	-273.93176	-486.27377	830.77899	-337.61014	-559.29059	914.90839	-102.96413	-698.85480	429.12302	-97.53787	-522.80573	429.94928	-413.07687	-653.39441	127.08963	33.64526	-564.39099	109.51026	-493.53067	
331	3.300	-583.09619	1399.53491	-500.13141	-605.84900	1593.87793	-268.91101	-704.82465	1515.12732	-372.87988	-485.83975	1461.75684	-400.97250	-781.85986	1313.40735	-216.44101	-427.48706	1307.77917	-267.61975	-634.04944	1184.15393	-363.95041	-597.12122	1364.46460	-198.49643	-907.58856	1000.37341	-214.31624	-361.12109	966.58380	-200.54105	-937.74237	837.40656	-339.32474	-361.10117	763.85889	-300.22784	-733.08417	824.36041	-283.74716	-487.31735	829.10016	-346.22861	-561.24506	913.17053	-114.39812	-700.99170	428.78491	-104.72591	-522.78717	428.82880	-422.65076	-654.44458	128.72659	31.74138	-563.36072	106.36282	-498.96313	
332	3.310	-584.02966	1399.83093	-509.45908	-606.88220	1592.80164	-277.90131	-705.63635	1514.46704	-381.64862	-486.68729	1460.90491	-409.67368	-783.41107	1311.58704	-226.23865	-427.85980	1305.91150	-276.55316	-634.25623	1183.48291	-374.09796	-597.89911	1362.79395	-207.66731	-907.26385	998.17847	-224.32896	-364.15250	965.33551	-207.91017	-936.86530	836.38074	-349.95660	-361.93759	760.74268	-304.13925	-734.30939	822.53967	-294.84332	-488.17920	827.86652	-356.62137	-563.42438	911.98187	-123.77489	-702.20978	427.95242	-112.14262	-523.83258	426.99774	-432.20331	-655.57574	130.75581	29.38495	-562.13776	101.92707	-501.70276	
333	3.320	-584.76111	1400.05640	-518.26843	-606.16010	1590.85608	-284.22476	-706.20831	1513.37061	-389.57581	-487.44250	1461.40259	-418.95135	-784.20142	1309.99548	-236.58325	-428.46811	1304.02197	-284.53448	-634.18945	1181.72754	-383.19757	-599.09418	1361.17126	-217.19316	-906.52277	995.51099	-233.56512	-365.26175	963.25977	-213.95932	-936.11102	834.25519	-359.89169	-363.81482	759.77966	-309.79065	-735.33533	820.73730	-305.84857	-488.54865	827.64514	-367.32385	-566.53528	910.01233	-135.18341	-703.79700	427.36221	-120.36144	-524.74567	425.63394	-442.64163	-656.53522	132.25922	27.75365	-560.76099	97.72553	-503.43384	
334	3.330	-585.15656	1400.46411	-527.47717	-607.59814	1589.56470	-292.14844	-706.81250	1512.70313	-398.42801	-488.25858	1461.46008	-427.24881	-785.05182	1308.66858	-246.87000	-428.87659	1302.79187	-292.39792	-633.97681	1181.15918	-394.09241	-601.04993	1360.32397	-225.78300	-906.56995	993.68726	-243.30779	-368.02365	961.62091	-221.83768	-934.58868	832.81543	-370.43088	-367.23627	756.78986	-314.63004	-736.14288	819.12219	-317.31235	-489.17871	826.87555	-377.63300	-567.66943	908.63934	-145.38551	-705.13141	426.62994	-129.02522	-525.91241	423.33078	-452.56091	-657.09680	134.79442	26.13586	-561.08313	94.67986	-506.71799	
335	3.340	-585.71814	1400.52502	-536.67657	-608.61237	1589.05042	-300.49228	-707.83484	1512.25452	-406.44525	-488.64984	1461.01404	-435.79825	-786.42462	1307.12988	-256.77161	-429.41946	1301.19666	-300.54013	-634.16846	1180.78442	-405.04135	-601.44519	1359.77271	-236.20833	-904.32990	989.94952	-251.75122	-370.02734	959.83008	-230.23259	-933.20184	830.99658	-379.74530	-368.40375	754.28607	-320.17258	-736.76428	818.00323	-330.32556	-489.49661	826.13403	-388.38333	-569.68799	907.96118	-156.51755	-706.33636	425.45090	-137.84802	-527.15344	421.35510	-460.29926	-658.73566	136.68901	21.67398	-562.82452	93.79892	-513.17157	
336	3.350	-585.80560	1401.16467	-545.63916	-608.62933	1588.03638	-308.62656	-707.84155	1512.10681	-415.39850	-489.02264	1460.92310	-445.69324	-786.68781	1305.67639	-267.36563	-430.06949	1300.11426	-309.24323	-633.77271	1180.14014	-415.13132	-601.00397	1356.95691	-244.85902	-904.54974	989.01196	-260.77750	-370.50119	959.38086	-238.06361	-931.30542	829.02002	-389.56210	-369.62442	751.97833	-325.53882	-737.14130	816.59302	-342.09671	-489.47244	826.44360	-400.43140	-571.11792	906.88715	-167.96512	-707.68170	424.47321	-147.71016	-527.12311	419.78714	-468.68112	-659.69421	139.19678	18.89264	-564.30194	93.43623	-519.72589	
337	3.360	-586.13245	1402.45825	-555.41107	-608.88086	1587.88513	-317.29782	-708.09717	1512.07080	-424.22983	-489.30124	1461.05078	-454.35800	-788.22754	1305.35107	-278.16962	-430.37302	1299.33203	-317.97623	-633.30237	1180.23364	-425.70651	-603.36310	1357.66467	-254.16878	-903.19965	987.22723	-269.83713	-371.27963	958.07458	-245.85394	-929.27649	827.77454	-399.05994	-370.94382	750.88391	-334.34689	-737.37347	815.34149	-354.07578	-489.49002	826.14258	-411.16403	-573.81494	906.44269	-178.24892	-709.61224	423.72882	-158.01561	-526.70703	419.08115	-477.61172	-660.58069	141.67763	15.62927	-565.29041	91.07688	-523.52545	
338	3.370	-586.22937	1403.21790	-564.31787	-609.30621	1587.11694	-325.41577	-708.92883	1512.51221	-432.84378	-490.18884	1461.80835	-462.05466	-789.09949	1304.48499	-288.52020	-430.60693	1299.01038	-325.08548	-632.94904	1180.52722	-436.07855	-603.29193	1356.97937	-263.62106	-900.67596	985.17554	-278.85974	-372.94330	957.68384	-254.84560	-927.18903	825.08270	-406.90479	-372.12003	749.89392	-342.26154	-737.50684	814.46667	-366.90448	-490.12540	828.35730	-425.12866	-574.93219	905.47430	-189.31596	-711.05865	422.82385	-169.31976	-527.25336	419.93430	-485.33932	-661.66791	145.00143	10.22433	-566.65491	89.55386	-526.65253	
339	3.380	-586.19897	1404.64600	-573.82178	-610.84924	1587.20593	-334.35001	-708.91089	1512.57764	-441.57245	-489.69699	1463.12427	-472.05197	-789.66895	1304.60327	-299.62634	-430.78476	1298.32996	-334.24319	-632.59412	1180.73328	-446.41129	-604.01917	1356.44043	-273.03281	-899.76758	984.20471	-288.78134	-374.16995	957.35883	-263.87668	-924.67902	823.45306	-416.41199	-373.27444	749.08850	-349.23764	-737.40985	813.97906	-379.70425	-489.19614	827.48926	-434.11182	-577.08075	904.41583	-201.50511	-712.98230	422.47598	-182.38774	-528.47595	421.33978	-493.82776	-663.22723	148.59427	5.38830	-567.90424	88.40831	-530.08008	
340	3.390	-586.17346	1405.98096	-583.14355	-610.18451	1588.20203	-342.42703	-708.87756	1513.47693	-450.65564	-489.64261	1463.20129	-481.33575	-790.55579	1304.03064	-309.44391	-431.44006	1298.70215	-342.56363	-632.09216	1181.80371	-456.49387	-604.36890	1356.23840	-282.15247	-897.71503	983.00317	-297.87695	-373.81259	957.75177	-272.50198	-921.57520	821.33191	-424.27786	-374.22278	749.47522	-358.54669	-737.31702	813.63165	-392.44617	-488.94186	828.42828	-445.06381	-579.21234	905.52850	-212.59752	-715.06000	421.27927	-195.77426	-531.09784	421.28604	-502.32770	-664.44299	152.76624	-1.45656	-567.83618	88.76318	-533.92480	
341	3.400	-585.98511	1407.84570	-592.46033	-610.61084	1588.34668	-351.09247	-709.36023	1514.67407	-460.05902	-490.43121	1464.66284	-490.01868	-791.34229	1304.91943	-320.66937	-432.25531	1299.13293	-351.02100	-631.82440	1183.19751	-466.75430	-605.20551	1356.27295	-291.73441	-894.57275	980.95221	-306.46539	-373.95242	958.33038	-282.26553	-918.75726	819.49554	-432.65811	-374.35361	749.98907	-369.13168	-737.05988	813.44067	-404.54132	-489.76880	829.94147	-458.17883	-580.78699	905.84521	-223.82115	-717.22131	420.44522	-210.95786	-532.77722	421.68127	-510.32718	-665.54425	156.29257	-7.93502	-568.42688	87.88798	-535.60693	
342	3.410	-585.65430	1409.81555	-601.85431	-611.62427	1589.87085	-360.08832	-709.28271	1516.07373	-469.86612	-489.92126	1466.05151	-498.58798	-792.51727	1305.20801	-330.36447	-432.52850	1300.32813	-359.99652	-631.56061	1184.93250	-477.50769	-606.44135	1358.50146	-301.67130	-893.57941	981.55566	-316.41983	-374.28256	958.92865	-291.96835	-915.38367	817.25323	-440.25922	-375.07935	751.73712	-379.69443	-736.62457	814.13074	-418.35641	-488.76736	831.55933	-467.72202	-582.02136	906.81720	-235.89835	-720.61859	419.25992	-226.66695	-532.63123	420.90695	-519.07019	-665.54486	161.51990	-15.76691	-568.40479	87.50648	-538.05774	
